<?xml version="1.0" encoding="UTF-8" standalone="no"?><svg xmlns="http://www.w3.org/2000/svg" xmlns:xlink="http://www.w3.org/1999/xlink" contentScriptType="application/ecmascript" contentStyleType="text/css" height="226px" preserveAspectRatio="none" style="width:978px;height:226px;" version="1.1" viewBox="0 0 978 226" width="978px" zoomAndPan="magnify"><defs/><g><text fill="#000000" font-family="Serif" font-size="10" lengthAdjust="spacingAndGlyphs" textLength="5" x="5.5" y="8.83">1</text><line style="stroke: #C0C0C0; stroke-width: 1.0;" x1="0" x2="0" y1="0" y2="224"/><text fill="#000000" font-family="Serif" font-size="10" lengthAdjust="spacingAndGlyphs" textLength="5" x="21.5" y="8.83">2</text><line style="stroke: #C0C0C0; stroke-width: 1.0;" x1="16" x2="16" y1="0" y2="224"/><text fill="#000000" font-family="Serif" font-size="10" lengthAdjust="spacingAndGlyphs" textLength="5" x="37.5" y="8.83">3</text><line style="stroke: #C0C0C0; stroke-width: 1.0;" x1="32" x2="32" y1="0" y2="224"/><text fill="#000000" font-family="Serif" font-size="10" lengthAdjust="spacingAndGlyphs" textLength="5" x="53.5" y="8.83">4</text><line style="stroke: #C0C0C0; stroke-width: 1.0;" x1="48" x2="48" y1="0" y2="224"/><text fill="#000000" font-family="Serif" font-size="10" lengthAdjust="spacingAndGlyphs" textLength="5" x="69.5" y="8.83">5</text><line style="stroke: #C0C0C0; stroke-width: 1.0;" x1="64" x2="64" y1="0" y2="224"/><text fill="#000000" font-family="Serif" font-size="10" lengthAdjust="spacingAndGlyphs" textLength="5" x="85.5" y="8.83">6</text><line style="stroke: #C0C0C0; stroke-width: 1.0;" x1="80" x2="80" y1="0" y2="224"/><text fill="#000000" font-family="Serif" font-size="10" lengthAdjust="spacingAndGlyphs" textLength="5" x="101.5" y="8.83">7</text><line style="stroke: #C0C0C0; stroke-width: 1.0;" x1="96" x2="96" y1="0" y2="224"/><text fill="#000000" font-family="Serif" font-size="10" lengthAdjust="spacingAndGlyphs" textLength="5" x="117.5" y="8.83">8</text><line style="stroke: #C0C0C0; stroke-width: 1.0;" x1="112" x2="112" y1="0" y2="224"/><text fill="#000000" font-family="Serif" font-size="10" lengthAdjust="spacingAndGlyphs" textLength="5" x="133.5" y="8.83">9</text><line style="stroke: #C0C0C0; stroke-width: 1.0;" x1="128" x2="128" y1="0" y2="224"/><text fill="#000000" font-family="Serif" font-size="10" lengthAdjust="spacingAndGlyphs" textLength="10" x="147" y="8.83">10</text><line style="stroke: #C0C0C0; stroke-width: 1.0;" x1="144" x2="144" y1="0" y2="224"/><text fill="#000000" font-family="Serif" font-size="10" lengthAdjust="spacingAndGlyphs" textLength="10" x="163" y="8.83">11</text><line style="stroke: #C0C0C0; stroke-width: 1.0;" x1="160" x2="160" y1="0" y2="224"/><text fill="#000000" font-family="Serif" font-size="10" lengthAdjust="spacingAndGlyphs" textLength="10" x="179" y="8.83">12</text><line style="stroke: #C0C0C0; stroke-width: 1.0;" x1="176" x2="176" y1="0" y2="224"/><text fill="#000000" font-family="Serif" font-size="10" lengthAdjust="spacingAndGlyphs" textLength="10" x="195" y="8.83">13</text><line style="stroke: #C0C0C0; stroke-width: 1.0;" x1="192" x2="192" y1="0" y2="224"/><text fill="#000000" font-family="Serif" font-size="10" lengthAdjust="spacingAndGlyphs" textLength="10" x="211" y="8.83">14</text><line style="stroke: #C0C0C0; stroke-width: 1.0;" x1="208" x2="208" y1="0" y2="224"/><text fill="#000000" font-family="Serif" font-size="10" lengthAdjust="spacingAndGlyphs" textLength="10" x="227" y="8.83">15</text><line style="stroke: #C0C0C0; stroke-width: 1.0;" x1="224" x2="224" y1="0" y2="224"/><text fill="#000000" font-family="Serif" font-size="10" lengthAdjust="spacingAndGlyphs" textLength="10" x="243" y="8.83">16</text><line style="stroke: #C0C0C0; stroke-width: 1.0;" x1="240" x2="240" y1="0" y2="224"/><text fill="#000000" font-family="Serif" font-size="10" lengthAdjust="spacingAndGlyphs" textLength="10" x="259" y="8.83">17</text><line style="stroke: #C0C0C0; stroke-width: 1.0;" x1="256" x2="256" y1="0" y2="224"/><text fill="#000000" font-family="Serif" font-size="10" lengthAdjust="spacingAndGlyphs" textLength="10" x="275" y="8.83">18</text><line style="stroke: #C0C0C0; stroke-width: 1.0;" x1="272" x2="272" y1="0" y2="224"/><text fill="#000000" font-family="Serif" font-size="10" lengthAdjust="spacingAndGlyphs" textLength="10" x="291" y="8.83">19</text><line style="stroke: #C0C0C0; stroke-width: 1.0;" x1="288" x2="288" y1="0" y2="224"/><text fill="#000000" font-family="Serif" font-size="10" lengthAdjust="spacingAndGlyphs" textLength="10" x="307" y="8.83">20</text><line style="stroke: #C0C0C0; stroke-width: 1.0;" x1="304" x2="304" y1="0" y2="224"/><text fill="#000000" font-family="Serif" font-size="10" lengthAdjust="spacingAndGlyphs" textLength="10" x="323" y="8.83">21</text><line style="stroke: #C0C0C0; stroke-width: 1.0;" x1="320" x2="320" y1="0" y2="224"/><text fill="#000000" font-family="Serif" font-size="10" lengthAdjust="spacingAndGlyphs" textLength="10" x="339" y="8.83">22</text><line style="stroke: #C0C0C0; stroke-width: 1.0;" x1="336" x2="336" y1="0" y2="224"/><text fill="#000000" font-family="Serif" font-size="10" lengthAdjust="spacingAndGlyphs" textLength="10" x="355" y="8.83">23</text><line style="stroke: #C0C0C0; stroke-width: 1.0;" x1="352" x2="352" y1="0" y2="224"/><text fill="#000000" font-family="Serif" font-size="10" lengthAdjust="spacingAndGlyphs" textLength="10" x="371" y="8.83">24</text><line style="stroke: #C0C0C0; stroke-width: 1.0;" x1="368" x2="368" y1="0" y2="224"/><text fill="#000000" font-family="Serif" font-size="10" lengthAdjust="spacingAndGlyphs" textLength="10" x="387" y="8.83">25</text><line style="stroke: #C0C0C0; stroke-width: 1.0;" x1="384" x2="384" y1="0" y2="224"/><text fill="#000000" font-family="Serif" font-size="10" lengthAdjust="spacingAndGlyphs" textLength="10" x="403" y="8.83">26</text><line style="stroke: #C0C0C0; stroke-width: 1.0;" x1="400" x2="400" y1="0" y2="224"/><text fill="#000000" font-family="Serif" font-size="10" lengthAdjust="spacingAndGlyphs" textLength="10" x="419" y="8.83">27</text><line style="stroke: #C0C0C0; stroke-width: 1.0;" x1="416" x2="416" y1="0" y2="224"/><text fill="#000000" font-family="Serif" font-size="10" lengthAdjust="spacingAndGlyphs" textLength="10" x="435" y="8.83">28</text><line style="stroke: #C0C0C0; stroke-width: 1.0;" x1="432" x2="432" y1="0" y2="224"/><text fill="#000000" font-family="Serif" font-size="10" lengthAdjust="spacingAndGlyphs" textLength="10" x="451" y="8.83">29</text><line style="stroke: #C0C0C0; stroke-width: 1.0;" x1="448" x2="448" y1="0" y2="224"/><text fill="#000000" font-family="Serif" font-size="10" lengthAdjust="spacingAndGlyphs" textLength="10" x="467" y="8.83">30</text><line style="stroke: #C0C0C0; stroke-width: 1.0;" x1="464" x2="464" y1="0" y2="224"/><text fill="#000000" font-family="Serif" font-size="10" lengthAdjust="spacingAndGlyphs" textLength="10" x="483" y="8.83">31</text><line style="stroke: #C0C0C0; stroke-width: 1.0;" x1="480" x2="480" y1="0" y2="224"/><text fill="#000000" font-family="Serif" font-size="10" lengthAdjust="spacingAndGlyphs" textLength="10" x="499" y="8.83">32</text><line style="stroke: #C0C0C0; stroke-width: 1.0;" x1="496" x2="496" y1="0" y2="224"/><text fill="#000000" font-family="Serif" font-size="10" lengthAdjust="spacingAndGlyphs" textLength="10" x="515" y="8.83">33</text><line style="stroke: #C0C0C0; stroke-width: 1.0;" x1="512" x2="512" y1="0" y2="224"/><text fill="#000000" font-family="Serif" font-size="10" lengthAdjust="spacingAndGlyphs" textLength="10" x="531" y="8.83">34</text><line style="stroke: #C0C0C0; stroke-width: 1.0;" x1="528" x2="528" y1="0" y2="224"/><text fill="#000000" font-family="Serif" font-size="10" lengthAdjust="spacingAndGlyphs" textLength="10" x="547" y="8.83">35</text><line style="stroke: #C0C0C0; stroke-width: 1.0;" x1="544" x2="544" y1="0" y2="224"/><text fill="#000000" font-family="Serif" font-size="10" lengthAdjust="spacingAndGlyphs" textLength="10" x="563" y="8.83">36</text><line style="stroke: #C0C0C0; stroke-width: 1.0;" x1="560" x2="560" y1="0" y2="224"/><text fill="#000000" font-family="Serif" font-size="10" lengthAdjust="spacingAndGlyphs" textLength="10" x="579" y="8.83">37</text><line style="stroke: #C0C0C0; stroke-width: 1.0;" x1="576" x2="576" y1="0" y2="224"/><text fill="#000000" font-family="Serif" font-size="10" lengthAdjust="spacingAndGlyphs" textLength="10" x="595" y="8.83">38</text><line style="stroke: #C0C0C0; stroke-width: 1.0;" x1="592" x2="592" y1="0" y2="224"/><text fill="#000000" font-family="Serif" font-size="10" lengthAdjust="spacingAndGlyphs" textLength="10" x="611" y="8.83">39</text><line style="stroke: #C0C0C0; stroke-width: 1.0;" x1="608" x2="608" y1="0" y2="224"/><text fill="#000000" font-family="Serif" font-size="10" lengthAdjust="spacingAndGlyphs" textLength="10" x="627" y="8.83">40</text><line style="stroke: #C0C0C0; stroke-width: 1.0;" x1="624" x2="624" y1="0" y2="224"/><text fill="#000000" font-family="Serif" font-size="10" lengthAdjust="spacingAndGlyphs" textLength="10" x="643" y="8.83">41</text><line style="stroke: #C0C0C0; stroke-width: 1.0;" x1="640" x2="640" y1="0" y2="224"/><text fill="#000000" font-family="Serif" font-size="10" lengthAdjust="spacingAndGlyphs" textLength="10" x="659" y="8.83">42</text><line style="stroke: #C0C0C0; stroke-width: 1.0;" x1="656" x2="656" y1="0" y2="224"/><text fill="#000000" font-family="Serif" font-size="10" lengthAdjust="spacingAndGlyphs" textLength="10" x="675" y="8.83">43</text><line style="stroke: #C0C0C0; stroke-width: 1.0;" x1="672" x2="672" y1="0" y2="224"/><text fill="#000000" font-family="Serif" font-size="10" lengthAdjust="spacingAndGlyphs" textLength="10" x="691" y="8.83">44</text><line style="stroke: #C0C0C0; stroke-width: 1.0;" x1="688" x2="688" y1="0" y2="224"/><text fill="#000000" font-family="Serif" font-size="10" lengthAdjust="spacingAndGlyphs" textLength="10" x="707" y="8.83">45</text><line style="stroke: #C0C0C0; stroke-width: 1.0;" x1="704" x2="704" y1="0" y2="224"/><text fill="#000000" font-family="Serif" font-size="10" lengthAdjust="spacingAndGlyphs" textLength="10" x="723" y="8.83">46</text><line style="stroke: #C0C0C0; stroke-width: 1.0;" x1="720" x2="720" y1="0" y2="224"/><text fill="#000000" font-family="Serif" font-size="10" lengthAdjust="spacingAndGlyphs" textLength="10" x="739" y="8.83">47</text><line style="stroke: #C0C0C0; stroke-width: 1.0;" x1="736" x2="736" y1="0" y2="224"/><text fill="#000000" font-family="Serif" font-size="10" lengthAdjust="spacingAndGlyphs" textLength="10" x="755" y="8.83">48</text><line style="stroke: #C0C0C0; stroke-width: 1.0;" x1="752" x2="752" y1="0" y2="224"/><text fill="#000000" font-family="Serif" font-size="10" lengthAdjust="spacingAndGlyphs" textLength="10" x="771" y="8.83">49</text><line style="stroke: #C0C0C0; stroke-width: 1.0;" x1="768" x2="768" y1="0" y2="224"/><text fill="#000000" font-family="Serif" font-size="10" lengthAdjust="spacingAndGlyphs" textLength="10" x="787" y="8.83">50</text><line style="stroke: #C0C0C0; stroke-width: 1.0;" x1="784" x2="784" y1="0" y2="224"/><text fill="#000000" font-family="Serif" font-size="10" lengthAdjust="spacingAndGlyphs" textLength="10" x="803" y="8.83">51</text><line style="stroke: #C0C0C0; stroke-width: 1.0;" x1="800" x2="800" y1="0" y2="224"/><text fill="#000000" font-family="Serif" font-size="10" lengthAdjust="spacingAndGlyphs" textLength="10" x="819" y="8.83">52</text><line style="stroke: #C0C0C0; stroke-width: 1.0;" x1="816" x2="816" y1="0" y2="224"/><text fill="#000000" font-family="Serif" font-size="10" lengthAdjust="spacingAndGlyphs" textLength="10" x="835" y="8.83">53</text><line style="stroke: #C0C0C0; stroke-width: 1.0;" x1="832" x2="832" y1="0" y2="224"/><text fill="#000000" font-family="Serif" font-size="10" lengthAdjust="spacingAndGlyphs" textLength="10" x="851" y="8.83">54</text><line style="stroke: #C0C0C0; stroke-width: 1.0;" x1="848" x2="848" y1="0" y2="224"/><text fill="#000000" font-family="Serif" font-size="10" lengthAdjust="spacingAndGlyphs" textLength="10" x="867" y="8.83">55</text><line style="stroke: #C0C0C0; stroke-width: 1.0;" x1="864" x2="864" y1="0" y2="224"/><text fill="#000000" font-family="Serif" font-size="10" lengthAdjust="spacingAndGlyphs" textLength="10" x="883" y="8.83">56</text><line style="stroke: #C0C0C0; stroke-width: 1.0;" x1="880" x2="880" y1="0" y2="224"/><text fill="#000000" font-family="Serif" font-size="10" lengthAdjust="spacingAndGlyphs" textLength="10" x="899" y="8.83">57</text><line style="stroke: #C0C0C0; stroke-width: 1.0;" x1="896" x2="896" y1="0" y2="224"/><text fill="#000000" font-family="Serif" font-size="10" lengthAdjust="spacingAndGlyphs" textLength="10" x="915" y="8.83">58</text><line style="stroke: #C0C0C0; stroke-width: 1.0;" x1="912" x2="912" y1="0" y2="224"/><text fill="#000000" font-family="Serif" font-size="10" lengthAdjust="spacingAndGlyphs" textLength="10" x="931" y="8.83">59</text><line style="stroke: #C0C0C0; stroke-width: 1.0;" x1="928" x2="928" y1="0" y2="224"/><text fill="#000000" font-family="Serif" font-size="10" lengthAdjust="spacingAndGlyphs" textLength="10" x="947" y="8.83">60</text><line style="stroke: #C0C0C0; stroke-width: 1.0;" x1="944" x2="944" y1="0" y2="224"/><text fill="#000000" font-family="Serif" font-size="10" lengthAdjust="spacingAndGlyphs" textLength="10" x="963" y="8.83">61</text><line style="stroke: #C0C0C0; stroke-width: 1.0;" x1="960" x2="960" y1="0" y2="224"/><line style="stroke: #C0C0C0; stroke-width: 1.0;" x1="976" x2="976" y1="0" y2="224"/><line style="stroke: #C0C0C0; stroke-width: 1.0;" x1="0" x2="976" y1="0" y2="0"/><line style="stroke: #C0C0C0; stroke-width: 1.0;" x1="0" x2="976" y1="13" y2="13"/><rect fill="#ADD8E6" height="12" rx="4" ry="4" style="stroke: #ADD8E6; stroke-width: 1.0;" width="556" x="2" y="18"/><text fill="#000000" font-family="Serif" font-size="11" lengthAdjust="spacingAndGlyphs" textLength="194" x="16" y="26.113">Run On Incoming Connect Interval = 35h</text><rect fill="#ADD8E6" height="12" rx="4" ry="4" style="stroke: #ADD8E6; stroke-width: 1.0;" width="284" x="690" y="34"/><text fill="#000000" font-family="Serif" font-size="11" lengthAdjust="spacingAndGlyphs" textLength="235" x="704" y="42.113">Run On Incoming Connect Interval starts again --&gt;</text><line style="stroke: #000000; stroke-width: 1.0;" x1="0" x2="8" y1="56" y2="56"/><line style="stroke: #000000; stroke-width: 1.0;" x1="51" x2="976" y1="56" y2="56"/><text fill="#000000" font-family="Serif" font-size="11" lengthAdjust="spacingAndGlyphs" textLength="39" x="10" y="57.7129">Backups</text><rect fill="#ADFF2F" height="12" rx="4" ry="4" style="stroke: #0000FF; stroke-width: 1.0;" width="124" x="2" y="66"/><text fill="#000000" font-family="Serif" font-size="11" lengthAdjust="spacingAndGlyphs" textLength="86" x="16" y="74.113">Successful Backup</text><rect fill="#ADFF2F" height="12" rx="4" ry="4" style="stroke: #0000FF; stroke-width: 1.0;" width="172" x="690" y="82"/><text fill="#000000" font-family="Serif" font-size="11" lengthAdjust="spacingAndGlyphs" textLength="114" x="704" y="90.113">Successful Backup again</text><line style="stroke: #000000; stroke-width: 1.0;" x1="0" x2="8" y1="104" y2="104"/><line style="stroke: #000000; stroke-width: 1.0;" x1="121" x2="976" y1="104" y2="104"/><text fill="#000000" font-family="Serif" font-size="11" lengthAdjust="spacingAndGlyphs" textLength="109" x="10" y="105.7129">Client connection status</text><rect fill="#00FF00" height="12" rx="4" ry="4" style="stroke: #00FF00; stroke-width: 1.0;" width="156" x="2" y="114"/><text fill="#000000" font-family="Serif" font-size="11" lengthAdjust="spacingAndGlyphs" textLength="77" x="16" y="122.113">Client connected</text><rect fill="#FF1493" height="12" rx="4" ry="4" style="stroke: #FF1493; stroke-width: 1.0;" width="156" x="162" y="130"/><text fill="#000000" font-family="Serif" font-size="11" lengthAdjust="spacingAndGlyphs" textLength="90" x="176" y="138.113">Client disconnected</text><polygon fill="#000000" points="312,146,318,152,312,158,306,152" style="stroke: #000000; stroke-width: 1.0;"/><text fill="#000000" font-family="Serif" font-size="11" lengthAdjust="spacingAndGlyphs" textLength="114" x="320" y="154.113">Connect does not trigger</text><rect fill="#00FF00" height="12" rx="4" ry="4" style="stroke: #00FF00; stroke-width: 1.0;" width="156" x="322" y="162"/><text fill="#000000" font-family="Serif" font-size="11" lengthAdjust="spacingAndGlyphs" textLength="105" x="336" y="170.113">Client connected again</text><rect fill="#FF1493" height="12" rx="4" ry="4" style="stroke: #FF1493; stroke-width: 1.0;" width="204" x="482" y="178"/><text fill="#000000" font-family="Serif" font-size="11" lengthAdjust="spacingAndGlyphs" textLength="118" x="496" y="186.113">Client disconnected again</text><polygon fill="#000000" points="680,194,686,200,680,206,674,200" style="stroke: #000000; stroke-width: 1.0;"/><text fill="#000000" font-family="Serif" font-size="11" lengthAdjust="spacingAndGlyphs" textLength="113" x="688" y="202.113">Connect triggers backup</text><rect fill="#00FF00" height="12" rx="4" ry="4" style="stroke: #00FF00; stroke-width: 1.0;" width="172" x="690" y="210"/><text fill="#000000" font-family="Serif" font-size="11" lengthAdjust="spacingAndGlyphs" textLength="114" x="704" y="218.113">Client connected again 2</text><line style="stroke: #CD0A0A; stroke-width: 1.5;" x1="152" x2="152" y1="128" y2="136"/><line style="stroke: #CD0A0A; stroke-width: 1.5;" x1="152" x2="160" y1="136" y2="136"/><polygon fill="#CD0A0A" points="156,132,156,136,156,140,160,136" style="stroke: #CD0A0A; stroke-width: 1.5;"/><line style="stroke: #CD0A0A; stroke-width: 1.5;" x1="312" x2="312" y1="160" y2="168"/><line style="stroke: #CD0A0A; stroke-width: 1.5;" x1="312" x2="320" y1="168" y2="168"/><polygon fill="#CD0A0A" points="316,164,316,168,316,172,320,168" style="stroke: #CD0A0A; stroke-width: 1.5;"/><line style="stroke: #CD0A0A; stroke-width: 1.5;" x1="472" x2="472" y1="176" y2="184"/><line style="stroke: #CD0A0A; stroke-width: 1.5;" x1="472" x2="480" y1="184" y2="184"/><polygon fill="#CD0A0A" points="476,180,476,184,476,188,480,184" style="stroke: #CD0A0A; stroke-width: 1.5;"/><line style="stroke: #CD0A0A; stroke-width: 1.5;" x1="680" x2="680" y1="208" y2="216"/><line style="stroke: #CD0A0A; stroke-width: 1.5;" x1="680" x2="688" y1="216" y2="216"/><polygon fill="#CD0A0A" points="684,212,684,216,684,220,688,216" style="stroke: #CD0A0A; stroke-width: 1.5;"/><line style="stroke: #CD0A0A; stroke-width: 1.5;" x1="680" x2="680" y1="192" y2="216"/><line style="stroke: #CD0A0A; stroke-width: 1.5;" x1="680" x2="688" y1="216" y2="216"/><polygon fill="#CD0A0A" points="684,212,684,216,684,220,688,216" style="stroke: #CD0A0A; stroke-width: 1.5;"/><line style="stroke: #CD0A0A; stroke-width: 1.5;" x1="680" x2="680" y1="192" y2="88"/><line style="stroke: #CD0A0A; stroke-width: 1.5;" x1="680" x2="688" y1="88" y2="88"/><polygon fill="#CD0A0A" points="684,84,684,88,684,92,688,88" style="stroke: #CD0A0A; stroke-width: 1.5;"/><line style="stroke: #CD0A0A; stroke-width: 1.5;" x1="688" x2="680" y1="88" y2="88"/><line style="stroke: #CD0A0A; stroke-width: 1.5;" x1="680" x2="680" y1="88" y2="40"/><line style="stroke: #CD0A0A; stroke-width: 1.5;" x1="680" x2="688" y1="40" y2="40"/><polygon fill="#CD0A0A" points="684,36,684,40,684,44,688,40" style="stroke: #CD0A0A; stroke-width: 1.5;"/><!--
--></g></svg>